# xmcd
#
# Track frame offsets:
#	150
#	31331
#	129398
#	151648
#	162199
#	173288
#	209027
#	222006
#	261899
#
# Disc length: 3600 seconds
#
# Revision: 0
# Processed by: cddbd v1.5.2PL0 Copyright (c) Steve Scherf et al.
# Submitted via: audiograbber 1.83.01
#
DISCID=6d0e0e09
DTITLE=Klaus Schulze and Pete Namlook - The Dark Side Of The Moog [Boxset 1 - Vol
DTITLE=1-4 2016] [CD 4) - Vol. 4
DYEAR=1996
DGENRE=Electronic
TTITLE0=Three Pipers At The Gates Of Dawn Part I [featuring Bill Laswell]
TTITLE1=Three Pipers At The Gates Of Dawn Part II [featuring Bill Laswell]
TTITLE2=Three Pipers At The Gates Of Dawn Part III [featuring Bill Laswell]
TTITLE3=Three Pipers At The Gates Of Dawn Part IV
TTITLE4=Three Pipers At The Gates Of Dawn Part V [featuring Bill Laswell]
TTITLE5=Three Pipers At The Gates Of Dawn Part VI
TTITLE6=Three Pipers At The Gates Of Dawn Part VII
TTITLE7=Three Pipers At The Gates Of Dawn Part VIII [featuring Bill Laswell]
TTITLE8=Three Pipers At The Gates Of Dawn Part IX
EXTD=
EXTT0=
EXTT1=
EXTT2=
EXTT3=
EXTT4=
EXTT5=
EXTT6=
EXTT7=
EXTT8=
PLAYORDER=
